<?xml version="1.0" standalone="no"?>
<!DOCTYPE svg PUBLIC "-//W3C//DTD SVG 20010904//EN"
 "http://www.w3.org/TR/2001/REC-SVG-20010904/DTD/svg10.dtd">
<svg version="1.0" xmlns="http://www.w3.org/2000/svg"
 width="512.000000pt" height="512.000000pt" viewBox="0 0 512.000000 512.000000"
 preserveAspectRatio="xMidYMid meet">
<metadata>
Created by potrace 1.14, written by Peter Selinger 2001-2017
</metadata>
<g transform="translate(0.000000,512.000000) scale(0.100000,-0.100000)"
fill="#000000" stroke="none">
<path d="M1739 4876 c-23 -11 -24 -16 -27 -135 -2 -77 1 -128 8 -136 19 -23
50 -25 71 -4 16 16 19 34 19 130 0 140 -16 173 -71 145z"/>
<path d="M3795 4826 c-89 -27 -145 -95 -145 -178 l0 -45 -54 -6 c-106 -11
-177 -83 -182 -186 -5 -91 55 -183 144 -223 40 -18 67 -21 177 -22 135 -1 279
8 307 19 21 8 26 32 35 165 9 143 8 247 -6 295 -35 131 -163 214 -276 181z"/>
<path d="M839 4777 c-14 -7 -25 -23 -27 -37 -4 -35 225 -264 254 -254 69 25
60 51 -63 176 -60 60 -115 113 -124 118 -9 5 -25 4 -40 -3z"/>
<path d="M2645 4780 c-11 -5 -69 -58 -128 -118 -86 -86 -108 -114 -105 -133 4
-28 45 -52 67 -39 9 5 65 58 125 118 96 97 108 113 102 136 -8 31 -34 46 -61
36z"/>
<path d="M1400 4226 c-240 -50 -361 -339 -240 -576 56 -109 123 -182 369 -397
l34 -30 -91 -17 c-208 -38 -421 -133 -618 -276 -94 -68 -263 -246 -332 -350
-183 -274 -263 -547 -257 -875 2 -88 6 -173 10 -190 3 -16 13 -63 21 -103 104
-505 495 -935 1002 -1102 119 -39 131 -42 262 -61 79 -12 311 -15 370 -6 19 4
53 9 75 12 22 4 56 10 75 15 19 5 46 11 60 14 58 10 213 72 317 126 91 47 114
55 125 44 7 -7 58 -35 113 -62 425 -211 914 -209 1340 6 270 135 503 362 648
632 78 145 147 358 165 510 13 121 5 440 -13 470 -2 3 -6 21 -9 40 -9 56 -51
189 -85 269 -32 74 -119 236 -145 268 -8 10 -42 52 -75 94 -338 426 -919 635
-1456 524 -168 -35 -345 -102 -464 -177 -39 -24 -47 -26 -60 -14 -24 22 -193
103 -269 131 -98 35 -249 72 -305 74 -11 1 6 21 50 58 277 234 376 371 390
539 8 93 -32 228 -85 290 -66 77 -176 127 -276 126 -102 -2 -182 -37 -248
-110 l-36 -40 -54 53 c-85 82 -196 114 -308 91z m530 -1466 c53 -10 247 -66
258 -75 2 -2 -27 -47 -63 -101 -118 -174 -192 -350 -237 -558 -29 -137 -31
-426 -4 -561 48 -237 154 -476 283 -638 13 -16 21 -33 18 -37 -7 -12 -177 -66
-235 -75 -25 -4 -54 -9 -65 -11 -33 -7 -209 -6 -261 1 -226 31 -479 161 -625
323 -183 203 -279 455 -273 722 4 165 9 197 56 330 130 375 476 646 873 686
33 4 61 7 62 8 7 6 156 -5 213 -14z m1625 -6 c390 -78 696 -359 806 -743 44
-154 46 -376 4 -536 -26 -103 -119 -304 -154 -335 -4 -3 -19 -23 -35 -45 -119
-163 -341 -309 -556 -366 -115 -30 -264 -39 -389 -24 -71 8 -204 43 -263 69
l-38 16 66 98 c184 271 267 554 259 887 -7 305 -86 549 -263 813 -30 45 -60
82 -66 82 -23 0 22 21 109 49 118 38 127 40 215 47 41 4 76 7 77 8 8 7 161 -7
228 -20z m-964 -397 c89 -113 164 -289 192 -452 14 -79 15 -279 2 -340 -19
-91 -28 -122 -55 -196 -30 -83 -81 -177 -140 -258 l-32 -43 -63 97 c-89 136
-143 278 -164 430 -9 70 -7 258 4 305 3 14 7 37 10 51 9 47 46 161 72 218 27
60 130 221 141 221 4 0 19 -15 33 -33z"/>
<path d="M565 4170 c-8 -9 -15 -26 -15 -37 0 -37 26 -47 128 -48 80 -1 99 2
114 17 22 22 23 51 2 69 -25 21 -210 20 -229 -1z"/>
<path d="M2737 4175 c-27 -13 -34 -57 -12 -75 11 -10 52 -14 133 -15 99 -1
118 1 134 17 22 22 23 51 2 68 -19 17 -226 21 -257 5z"/>
<path d="M4506 4095 c-52 -18 -102 -75 -112 -128 -14 -77 -3 -292 17 -311 12
-13 24 -14 164 -21 146 -6 200 9 249 69 43 52 46 127 9 175 -28 36 -77 61
-117 61 -21 0 -24 5 -24 35 0 23 -9 48 -27 71 -40 53 -97 70 -159 49z"/>
</g>
</svg>
